<svg xmlns="http://www.w3.org/2000/svg" width="936.08" height="309.896" viewBox="0 0 936.08 309.896">
  <g id="Group_2" data-name="Group 2" transform="translate(-28 -616)">
    <g id="ethereum-1" transform="translate(28 558.689)">
      <path id="Path_1" data-name="Path 1" d="M127.961,0l-2.795,7.246V217.518l2.795,2.128,127.962-57.695Z" transform="translate(0 57.311)" fill="#df369e"/>
      <path id="Path_2" data-name="Path 2" d="M127.962,0,0,161.952l127.962,57.7V0Z" transform="translate(0 57.311)" fill="#c42c8a"/>
      <path id="Path_3" data-name="Path 3" d="M127.961,295.452l-1.575,1.495v76.462l1.575,3.582L256,236.587Z" transform="translate(0 -9.784)" fill="#c42c8a"/>
      <path id="Path_4" data-name="Path 4" d="M127.962,376.99V295.45L0,236.585Z" transform="translate(0 -9.784)" fill="#df369e"/>
      <path id="Path_5" data-name="Path 5" d="M127.961,257.086,255.921,198.9l-127.96-44.742Z" transform="translate(0 19.872)" fill="#b81d7d"/>
      <path id="Path_6" data-name="Path 6" d="M0,198.9l127.96,58.186V154.158Z" transform="translate(0 19.872)" fill="#a5116c"/>
    </g>
    <g id="Group_1" data-name="Group 1" transform="translate(0 -9.15)">
      <path id="Path_7" data-name="Path 7" d="M10.5-97.35H84.75V-80.7H33.9v22.35H79.8V-41.7H33.9v25.05H86.25V0H10.5Zm91.5,0h23.4v80.7h47.85V0H102ZM214.95-39,179.7-97.35h26.55l20.55,38.1,20.4-38.1h26.7L238.35-39.3V0h-23.4ZM317.1,1.5a272.7,272.7,0,0,1-34.5-2.7V-19.05q25.5,3.9,34.8,3.9,19.5,0,19.5-10.05v-6.3q0-4.8-2.775-7.35T324.15-41.4h-11.4q-32.1,0-32.1-25.5v-7.2q0-12.75,10.65-18.75t33.75-6A300.183,300.183,0,0,1,355.5-96.9v17.4q-22.65-2.7-31.2-2.7-11.85,0-15.9,1.95a6.924,6.924,0,0,0-4.35,6.6v6.9q0,7.65,12.9,7.65h11.7q16.65,0,24.15,6.15t7.5,18.75v6.45q0,17.4-12.45,23.55A45.12,45.12,0,0,1,334.575.225,102.921,102.921,0,0,1,317.1,1.5Zm59.4-98.85h23.4V0H376.5ZM462.75,1.5q-42.15,0-42.15-28.2V-97.35H444V-26.7q0,6.6,4.275,9.075T463.05-15.15q10.35,0,14.475-2.475T481.65-26.7V-97.35h23.4V-26.7Q505.05,1.5,462.75,1.5Zm63-98.85h33.3l24,69.6,23.7-69.6H638.1V0H616.95V-72h-.45L591.9,0H573.15L547.8-72h-.6V0H525.75Z" transform="translate(322 803)" fill="#272727" stroke="#272727" stroke-width="1"/>
      <path id="Path_8" data-name="Path 8" d="M3.36-25.96H8.04L22.16-4.52V-25.96h3.4V0H20.88L6.76-21.8V0H3.36Zm48.56,0H69.76v2.72H55.8v8.48H68.44v2.72H55.8V0H51.92Zm48.44,2.72h-8.8v-2.72h21.48v2.72h-8.76V0h-3.92Zm65.48-2.72h5.8l8.32,21.6.12.04,7.88-21.64h5.6V0h-3.4V-21.96h-.2L181.6,0h-3.48l-8.6-21.96h-.2V0h-3.48Zm61.64,0h4.48L242.04,0H238l-2.96-7.88H223.92L221,0h-3.84Zm6.6,15.4-4.4-11.72h-.36l-4.4,11.72Zm31.56-15.4h9.12a26.762,26.762,0,0,1,5.38.42,4.916,4.916,0,0,1,2.84,1.5,4.827,4.827,0,0,1,.9,3.16v4.48a4.048,4.048,0,0,1-1.9,3.58,8.551,8.551,0,0,1-4.82,1.26L285.48,0h-4.76l-7.44-11.08h-3.76V0h-3.88Zm8.96,12.32a9.022,9.022,0,0,0,4.14-.7A2.649,2.649,0,0,0,280-16.88v-3.6q0-2.92-5.04-2.92h-5.44v9.76Zm35.96-12.32h3.88V0h-3.88Zm3.96,12.16,11.6-12.16h4.68l-11.68,12L331.96,0h-5.04Zm40.04-12.16H372v2.72H358.44v8.48h12.24v2.72H358.44v9.32H372.4V0H354.56Zm49.24,2.72H395v-2.72h21.48v2.72h-8.76V0H403.8Zm36.64-2.72h8.48q1.8,0,2.9.08a15.89,15.89,0,0,1,2.34.36,5.544,5.544,0,0,1,2.06.84,4.827,4.827,0,0,1,1.34,1.52,4.667,4.667,0,0,1,.52,2.32v5.4a4.941,4.941,0,0,1-2.5,4.66q-2.5,1.42-7.38,1.42h-3.88V0h-3.88Zm8.28,14.16a7.746,7.746,0,0,0,4.04-.92,3.161,3.161,0,0,0,1.52-2.92v-4.72a2.76,2.76,0,0,0-.56-1.78,2.96,2.96,0,0,0-1.6-.98,14.89,14.89,0,0,0-1.68-.32,16.1,16.1,0,0,0-1.8-.08h-4.36V-11.8Zm34.16-14.16h3.88V-2.72h12.76V0H482.88Zm48,0h4.48L545.44,0H541.4l-2.96-7.88H527.32L524.4,0h-3.84Zm6.6,15.4-4.4-11.72h-.36l-4.4,11.72ZM579.16.4q-10.92,0-10.92-7.04V-18.96q0-7.44,10.92-7.44a32.554,32.554,0,0,1,7.12.76v2.88a29.214,29.214,0,0,0-7.04-.96,17.969,17.969,0,0,0-2.72.18,9.967,9.967,0,0,0-2.24.62A3.852,3.852,0,0,0,571.96-19V-6.84q0,4.48,7.44,4.48a29.215,29.215,0,0,0,7.04-.96V-.36A33.323,33.323,0,0,1,579.16.4Zm32.08-26.36h17.44v2.72H615.12v8.48h12.24v2.72H615.12v9.32h13.96V0H611.24Z" transform="translate(335 856)" fill="#272727"/>
    </g>
  </g>
</svg>
